# xmcd
#
# Track frame offsets: 
#        150
#        6576
#        25707
#        48310
#        51783
#        69056
#        87644
#        102805
#        120594
#        137943
#        152270
#        156694
#        172635
#        186878
#
# Disc length: 2577 seconds
#
# Revision: 0
# Processed by: cddbd v1.5.2PL0 Copyright (c) Steve Scherf et al.
# Submitted via: ExactAudioCopy v1.1
#
DISCID=ae0a0f0e
DTITLE=Young Buck - The Rehab
DYEAR=2010
DGENRE=Hip-Hop
TTITLE0=The Streetz
TTITLE1=This Is Mine
TTITLE2=Smoke Our Life Away
TTITLE3=Statistics
TTITLE4=Keep It Moving
TTITLE5=Hood Documentary
TTITLE6=Ya Betta Know It
TTITLE7=When The Rain Stops
TTITLE8=Not Killing Me
TTITLE9=Nothin 4 Ya
TTITLE10=The Bust
TTITLE11=Like a Million
TTITLE12=Leave It Alone
TTITLE13=Reality Check
EXTD=
EXTT0=
EXTT1=
EXTT2=
EXTT3=
EXTT4=
EXTT5=
EXTT6=
EXTT7=
EXTT8=
EXTT9=
EXTT10=
EXTT11=
EXTT12=
EXTT13=
PLAYORDER=
